<svg xmlns="http://www.w3.org/2000/svg" xmlns:xlink="http://www.w3.org/1999/xlink" version="1.1" x="0px" y="0px" viewBox="0 0 100 125" enable-background="new 0 0 100 100" xml:space="preserve"><polygon points="63.538,60.053 70.289,60.053 60.941,41.009 65.961,41.009 49.342,5 32.722,41.009 37.742,41.009 28.395,60.053   35.146,60.053 25.278,78.403 73.405,78.403 "/><rect x="44.84" y="79.591" width="8.656" height="15.409"/><polygon points="89.553,58.116 92.878,58.116 88.274,48.736 90.747,48.736 82.561,31 74.375,48.736 76.848,48.736 72.244,58.116   75.569,58.116 70.709,67.155 94.413,67.155 "/><rect x="80.344" y="67.74" width="4.264" height="7.589"/><polygon points="23.844,58.116 27.169,58.116 22.565,48.736 25.038,48.736 16.852,31 8.666,48.736 11.139,48.736 6.535,58.116   9.86,58.116 5,67.155 28.704,67.155 "/><rect x="14.635" y="67.74" width="4.264" height="7.589"/><text x="0" y="115" fill="#000000" font-size="5px" font-weight="bold" font-family="'Helvetica Neue', Helvetica, Arial-Unicode, Arial, Sans-serif">Created by Vicons Design</text><text x="0" y="120" fill="#000000" font-size="5px" font-weight="bold" font-family="'Helvetica Neue', Helvetica, Arial-Unicode, Arial, Sans-serif">from the Noun Project</text></svg>