<svg xmlns="http://www.w3.org/2000/svg" xmlns:xlink="http://www.w3.org/1999/xlink" version="1.1" x="0px" y="0px" viewBox="0 0 100 125" enable-background="new 0 0 100 100" xml:space="preserve"><g><path fill="#000000" d="M93.3,68h-7.8c-1,0-1.8,0.8-1.8,1.8v2.7c0,1,0.8,1.8,1.8,1.8h7.8c1,0,1.8-0.8,1.8-1.8v-2.7   C95.1,68.8,94.2,68,93.3,68z"/><path fill="#000000" d="M39.2,71.2c-2.4,0-4.4,2-4.4,4.4c0,2.4,2,4.4,4.4,4.4c2.4,0,4.4-2,4.4-4.4C43.7,73.2,41.7,71.2,39.2,71.2z    M39.2,77.6c-1.1,0-2-0.9-2-2c0-1.1,0.9-2,2-2c1.1,0,2,0.9,2,2C41.2,76.7,40.3,77.6,39.2,77.6z"/><path fill="#000000" d="M25.5,71.2c-2.4,0-4.4,2-4.4,4.4c0,2.4,2,4.4,4.4,4.4c2.4,0,4.4-2,4.4-4.4C29.9,73.2,27.9,71.2,25.5,71.2z    M25.5,77.6c-1.1,0-2-0.9-2-2c0-1.1,0.9-2,2-2c1.1,0,2,0.9,2,2C27.5,76.7,26.6,77.6,25.5,77.6z"/><path fill="#000000" d="M68.1,67.2c-4,0-7.2,3.2-7.2,7.2s3.2,7.2,7.2,7.2c4,0,7.2-3.2,7.2-7.2S72,67.2,68.1,67.2z M68.1,78.2   c-2.1,0-3.9-1.7-3.9-3.9s1.7-3.9,3.9-3.9c2.1,0,3.9,1.7,3.9,3.9S70.2,78.2,68.1,78.2z"/><path fill="#000000" d="M93.4,54.8L82.5,38c-1.2-1.9-3.3-3.1-5.6-3.1H54.5v21H27.1l0.2-0.1l8.9-3.3L47,48.7l4.2-1.5   c1.2-0.5,1.9-1.8,1.4-3.1L47,29.3l7.5-4.8l-1.2-3.2l-8.2,3l-3.6,1.3l-2.2,0.8l-11.7,4.3L18.8,34L8.3,37.8l6.8,18.5v9.1v1.9v6   c0,0.9,0.8,1.7,1.7,1.7h2.6c0.2-3.1,2.8-5.5,6-5.5s5.7,2.4,6,5.5h2c0.2-3.1,2.7-5.6,5.9-5.6c3.1,0,5.7,2.5,5.9,5.6h13.4   c0-0.1,0-0.2,0-0.3c0-5.3,4.3-9.5,9.5-9.5c5.3,0,9.5,4.3,9.5,9.5c0,0.1,0,0.2,0,0.3h4.1v-6c0-1.7,1.4-3,3-3h9.5   c0.4,0,0.7,0.1,1,0.2v-5.3C95.2,58.8,94.6,56.7,93.4,54.8z M42.6,28.4l4.7,12.7c0.7,2-0.3,4.2-2.2,4.9v0c-0.4,0.2-0.9,0.2-1.3,0.2   c-1.6,0-3-0.9-3.6-2.5L35.5,31L42.6,28.4z M31.4,32.5l4.7,12.7c0.7,2-0.3,4.2-2.2,4.9c-0.4,0.2-0.9,0.2-1.3,0.2   c-1.6,0-3-0.9-3.6-2.5l-4.7-12.7L31.4,32.5z M20.3,36.7l4.7,12.7c0.7,2-0.3,4.2-2.2,4.9c-0.4,0.2-0.9,0.2-1.3,0.2   c-1.6,0-3-0.9-3.6-2.5l-4.7-12.7L20.3,36.7z M65.7,52.7H59V39.5h6.6V52.7z M69.6,52.7V39.5h7.1c1.4,0,2.7,0.7,3.4,1.9l6.7,11.2   H69.6z"/><polygon fill="#000000" points="5.2,39 5.9,62.6 8.8,61.6 8.3,37.8  "/><path fill="#000000" d="M43.9,22.6c-0.8-1.4-2.2-2.8-4-2.8c-1.1,0-2,0.4-2.8,1c-1.3-1.5-3.2-2.5-5.3-2.5c-2.2,0-4.2,1.1-5.5,2.8   c-1.3-1.4-3.1-2.3-5.2-2.3c-3.6,0-6.6,2.9-6.7,6.5c-0.3,0-0.6-0.1-1-0.1c-3.8,0-6.8,3.1-6.7,6.8c0,1.3,0.3,2.9,1,4L43.9,22.6z"/><path fill="#000000" d="M21.5,52.7c0.2,0,0.5,0,0.7-0.1c1-0.4,1.6-1.5,1.2-2.6l-4.1-11l-3.7,1.4l4.1,11   C19.9,52.2,20.7,52.7,21.5,52.7z"/><path fill="#000000" d="M32.6,48.6c0.2,0,0.5,0,0.7-0.1c0.5-0.2,0.9-0.6,1.1-1c0.2-0.5,0.2-1,0.1-1.5l-4.1-11l-3.7,1.4l4.1,11   C31,48,31.8,48.6,32.6,48.6z"/><path fill="#000000" d="M43.8,44.4c0.2,0,0.5,0,0.7-0.1c1-0.4,1.6-1.5,1.2-2.6l-4.1-11l-3.7,1.4l4.1,11   C42.2,43.9,42.9,44.4,43.8,44.4z"/></g><text x="0" y="115" fill="#000000" font-size="5px" font-weight="bold" font-family="'Helvetica Neue', Helvetica, Arial-Unicode, Arial, Sans-serif">Created by parkjisun</text><text x="0" y="120" fill="#000000" font-size="5px" font-weight="bold" font-family="'Helvetica Neue', Helvetica, Arial-Unicode, Arial, Sans-serif">from the Noun Project</text></svg>